<svg width="1190" height="65" viewBox="0 0 1190 65" fill="none" xmlns="http://www.w3.org/2000/svg">
<rect x="438" width="314" height="65" rx="32.5" fill="#394B99"/>
<path d="M485.434 26.53L479.809 38.05C479.329 39.01 478.819 39.7 478.279 40.12C477.739 40.51 477.094 40.705 476.344 40.705C475.384 40.705 474.574 40.375 473.914 39.715C473.254 39.025 472.399 37.795 471.349 36.025L466.129 26.53V39.265C466.129 40.555 465.829 41.5 465.229 42.1C464.659 42.7 463.789 43 462.619 43C461.299 43 460.339 42.715 459.739 42.145C459.139 41.545 458.839 40.39 458.839 38.68V19.06C458.839 16.75 459.364 15.01 460.414 13.84C461.464 12.67 463.234 12.085 465.724 12.085C466.654 12.085 467.464 12.25 468.154 12.58C468.844 12.88 469.354 13.24 469.684 13.66C470.044 14.05 470.389 14.545 470.719 15.145L476.749 28.33L483.139 15.37C484.249 13.21 486.244 12.13 489.124 12.13C490.474 12.13 491.629 12.37 492.589 12.85C493.549 13.3 494.299 14.05 494.839 15.1C495.409 16.12 495.694 17.41 495.694 18.97V38.545C495.664 41.515 493.789 43 490.069 43C488.719 43 487.609 42.64 486.739 41.92C485.899 41.17 485.464 39.97 485.434 38.32V26.53ZM523.744 30.31C523.744 35.44 523.594 39.025 523.294 41.065C523.054 42.895 522.679 44.47 522.169 45.79C521.659 47.14 520.939 48.325 520.009 49.345C519.079 50.395 517.894 51.175 516.454 51.685C515.014 52.195 513.304 52.45 511.324 52.45C509.734 52.45 508.249 52.21 506.869 51.73C505.519 51.28 504.439 50.71 503.629 50.02C502.849 49.36 502.234 48.7 501.784 48.04C501.334 47.38 501.109 46.81 501.109 46.33C501.109 45.85 501.259 45.4 501.559 44.98C501.889 44.59 502.324 44.395 502.864 44.395C503.254 44.395 503.704 44.515 504.214 44.755C504.754 44.995 505.264 45.265 505.744 45.565C506.224 45.865 506.794 46.135 507.454 46.375C508.114 46.615 508.759 46.735 509.389 46.735C511.009 46.735 512.149 46.33 512.809 45.52C513.499 44.71 513.844 43.555 513.844 42.055C513.334 42.265 512.839 42.445 512.359 42.595C511.879 42.745 511.414 42.865 510.964 42.955C510.514 43.045 510.079 43.105 509.659 43.135C509.269 43.165 508.879 43.18 508.489 43.18C506.719 43.18 505.204 42.685 503.944 41.695C502.684 40.705 501.769 39.49 501.199 38.05C500.659 36.58 500.389 35.005 500.389 33.325C500.389 31.645 500.404 30.22 500.434 29.05C500.494 27.88 500.599 26.845 500.749 25.945C500.899 25.015 501.064 24.28 501.244 23.74C501.454 23.2 501.739 22.765 502.099 22.435C502.459 22.075 502.864 21.835 503.314 21.715C503.764 21.595 504.304 21.535 504.934 21.535C506.824 21.535 508.144 21.865 508.894 22.525C509.674 23.155 510.064 24.16 510.064 25.54L510.109 32.785C510.109 33.265 510.109 33.625 510.109 33.865C510.109 34.075 510.124 34.345 510.154 34.675C510.214 35.005 510.274 35.245 510.334 35.395C510.424 35.545 510.529 35.71 510.649 35.89C510.799 36.04 510.979 36.145 511.189 36.205C511.429 36.265 511.714 36.295 512.044 36.295C512.944 36.295 513.499 36.055 513.709 35.575C513.949 35.065 514.069 34.15 514.069 32.83L514.114 25.54C514.114 24.61 514.264 23.86 514.564 23.29C514.894 22.72 515.434 22.285 516.184 21.985C516.934 21.685 517.954 21.535 519.244 21.535C520.024 21.535 520.684 21.67 521.224 21.94C521.794 22.18 522.244 22.51 522.574 22.93C522.904 23.32 523.144 23.92 523.294 24.73C523.474 25.51 523.594 26.305 523.654 27.115C523.714 27.925 523.744 28.99 523.744 30.31ZM557.132 22.84C557.132 21.73 557.027 20.86 556.817 20.23C556.607 19.57 556.232 19.075 555.692 18.745C555.182 18.415 554.612 18.205 553.982 18.115C553.382 17.995 552.542 17.935 551.462 17.935V27.835C552.302 27.835 553.037 27.76 553.667 27.61C554.327 27.46 554.927 27.205 555.467 26.845C556.007 26.485 556.412 25.975 556.682 25.315C556.982 24.625 557.132 23.8 557.132 22.84ZM551.462 36.25C551.462 38.68 551.012 40.42 550.112 41.47C549.212 42.49 547.832 43 545.972 43C544.112 43 542.747 42.535 541.877 41.605C541.007 40.645 540.572 38.965 540.572 36.565V17.575C540.572 15.745 541.067 14.395 542.057 13.525C543.047 12.625 544.352 12.175 545.972 12.175H553.982C555.932 12.175 557.732 12.445 559.382 12.985C561.032 13.495 562.457 14.23 563.657 15.19C564.887 16.12 565.832 17.305 566.492 18.745C567.182 20.155 567.527 21.73 567.527 23.47C567.527 25.6 566.912 27.46 565.682 29.05C564.452 30.61 562.832 31.78 560.822 32.56C558.812 33.34 556.547 33.73 554.027 33.73H551.462V36.25ZM581.081 38.185C581.081 39.985 580.706 41.245 579.956 41.965C579.206 42.655 577.871 43 575.951 43C574.181 43 572.981 42.595 572.351 41.785C571.721 40.945 571.406 39.58 571.406 37.69V26.62C571.406 25.6 571.586 24.715 571.946 23.965C572.306 23.185 572.831 22.585 573.521 22.165C574.211 21.745 575.021 21.535 575.951 21.535C578.231 21.535 579.731 22.195 580.451 23.515C582.191 22.195 583.871 21.535 585.491 21.535C588.641 21.535 590.216 23.035 590.216 26.035C590.216 27.235 589.871 28.21 589.181 28.96C588.491 29.71 587.591 30.085 586.481 30.085C585.821 30.085 585.281 29.95 584.861 29.68C584.471 29.41 584.096 29.14 583.736 28.87C583.406 28.6 583.016 28.465 582.566 28.465C581.906 28.465 581.411 28.69 581.081 29.14V38.185ZM606.288 32.335C606.288 30.775 606.093 29.41 605.703 28.24C605.313 27.04 604.743 26.44 603.993 26.44C603.483 26.44 603.033 26.74 602.643 27.34C602.253 27.94 601.968 28.675 601.788 29.545C601.608 30.415 601.518 31.345 601.518 32.335C601.518 33.865 601.728 35.215 602.148 36.385C602.568 37.525 603.168 38.095 603.948 38.095C604.728 38.095 605.313 37.525 605.703 36.385C606.093 35.245 606.288 33.895 606.288 32.335ZM603.948 43.315C601.608 43.315 599.493 42.895 597.603 42.055C595.743 41.215 594.243 39.955 593.103 38.275C591.993 36.595 591.438 34.63 591.438 32.38C591.438 28.96 592.608 26.245 594.948 24.235C597.288 22.225 600.288 21.22 603.948 21.22C607.608 21.22 610.593 22.225 612.903 24.235C615.213 26.245 616.368 28.96 616.368 32.38C616.368 35.77 615.183 38.44 612.813 40.39C610.473 42.34 607.518 43.315 603.948 43.315ZM631.031 26.26V40.885C631.031 44.245 630.386 46.96 629.096 49.03C627.806 51.13 625.751 52.18 622.931 52.18C619.751 52.18 617.186 51.7 615.236 50.74C613.256 49.78 612.266 48.76 612.266 47.68C612.266 46.87 612.581 46.285 613.211 45.925C613.811 45.595 614.876 45.43 616.406 45.43C617.246 45.43 617.906 45.385 618.386 45.295C618.866 45.235 619.346 45.055 619.826 44.755C620.336 44.485 620.696 44.02 620.906 43.36C621.146 42.73 621.266 41.89 621.266 40.84V26.935C621.266 25.075 621.716 23.71 622.616 22.84C623.546 21.97 624.761 21.535 626.261 21.535C627.641 21.535 628.781 22 629.681 22.93C630.581 23.83 631.031 24.94 631.031 26.26ZM621.131 15.28C621.131 14.29 621.551 13.48 622.391 12.85C623.261 12.19 624.476 11.86 626.036 11.86C629.306 11.86 630.941 13 630.941 15.28C630.941 16.54 630.521 17.425 629.681 17.935C628.871 18.445 627.656 18.7 626.036 18.7C624.626 18.7 623.456 18.43 622.526 17.89C621.596 17.35 621.131 16.48 621.131 15.28ZM647.809 43.27C644.149 43.27 641.119 42.325 638.719 40.435C636.349 38.545 635.164 35.965 635.164 32.695C635.164 29.155 636.334 26.365 638.674 24.325C641.044 22.255 644.089 21.22 647.809 21.22C651.319 21.22 653.884 21.85 655.504 23.11C657.154 24.34 657.979 26.035 657.979 28.195C657.979 28.615 657.919 29.02 657.799 29.41C657.709 29.8 657.544 30.19 657.304 30.58C657.094 30.94 656.794 31.285 656.404 31.615C656.044 31.915 655.624 32.2 655.144 32.47C654.664 32.71 654.094 32.905 653.434 33.055C652.774 33.175 652.069 33.235 651.319 33.235L644.974 33.28C645.274 34.24 645.814 35.005 646.594 35.575C647.374 36.115 648.364 36.385 649.564 36.385C650.854 36.385 652.174 36.22 653.524 35.89C654.094 35.74 654.709 35.5 655.369 35.17C656.059 34.84 656.554 34.675 656.854 34.675C657.364 34.675 657.754 34.825 658.024 35.125C658.324 35.425 658.474 35.8 658.474 36.25C658.474 36.79 658.234 37.45 657.754 38.23C657.274 38.98 656.599 39.745 655.729 40.525C654.889 41.275 653.764 41.92 652.354 42.46C650.944 43 649.429 43.27 647.809 43.27ZM644.749 30.4C646.819 30.37 647.944 30.355 648.124 30.355C648.574 30.355 648.904 30.085 649.114 29.545C649.264 29.155 649.339 28.615 649.339 27.925C649.339 26.035 648.769 25.09 647.629 25.09C647.209 25.09 646.789 25.315 646.369 25.765C645.979 26.215 645.634 26.86 645.334 27.7C645.034 28.51 644.839 29.41 644.749 30.4ZM675.517 26.17C675.517 25.48 675.127 25.135 674.347 25.135C673.777 25.135 673.267 25.45 672.817 26.08C672.367 26.71 672.022 27.505 671.782 28.465C671.542 29.395 671.422 30.37 671.422 31.39C671.422 32.89 671.872 34.105 672.772 35.035C673.702 35.965 674.947 36.43 676.507 36.43C678.037 36.43 679.357 36.25 680.467 35.89C680.917 35.77 681.457 35.545 682.087 35.215C682.747 34.885 683.212 34.72 683.482 34.72C683.902 34.72 684.247 34.795 684.517 34.945C684.787 35.095 684.967 35.275 685.057 35.485C685.177 35.695 685.237 35.92 685.237 36.16C685.237 36.58 685.087 37.09 684.787 37.69C684.517 38.29 684.082 38.92 683.482 39.58C682.882 40.24 682.177 40.855 681.367 41.425C680.587 41.965 679.612 42.415 678.442 42.775C677.272 43.135 676.042 43.315 674.752 43.315C671.032 43.315 667.972 42.325 665.572 40.345C663.172 38.335 661.972 35.59 661.972 32.11C661.972 29.89 662.512 27.955 663.592 26.305C664.702 24.625 666.217 23.365 668.137 22.525C670.057 21.655 672.262 21.22 674.752 21.22C677.122 21.22 679.072 21.505 680.602 22.075C682.162 22.615 683.272 23.35 683.932 24.28C684.592 25.21 684.922 26.32 684.922 27.61C684.922 28.18 684.802 28.765 684.562 29.365C684.352 29.965 684.007 30.565 683.527 31.165C683.077 31.765 682.402 32.26 681.502 32.65C680.602 33.01 679.552 33.19 678.352 33.19C677.812 33.19 677.362 33.16 677.002 33.1C676.672 33.04 676.312 32.92 675.922 32.74C675.562 32.53 675.292 32.2 675.112 31.75C674.932 31.3 674.842 30.73 674.842 30.04C674.842 29.44 674.947 28.72 675.157 27.88C675.397 27.01 675.517 26.44 675.517 26.17ZM690.638 33.37V28.06C689.888 28.03 689.288 27.91 688.838 27.7C688.388 27.46 688.058 27.16 687.848 26.8C687.668 26.44 687.578 25.99 687.578 25.45C687.578 23.74 688.613 22.81 690.683 22.66V18.475C690.683 17.335 691.508 16.315 693.158 15.415C694.808 14.485 696.443 14.02 698.063 14.02C699.053 14.02 699.698 14.305 699.998 14.875C700.298 15.445 700.448 16.3 700.448 17.44L700.493 22.615H701.708C703.358 22.615 704.483 22.84 705.083 23.29C705.713 23.71 706.028 24.49 706.028 25.63C706.028 26.11 705.938 26.515 705.758 26.845C705.578 27.175 705.278 27.43 704.858 27.61C704.468 27.79 703.988 27.925 703.418 28.015C702.848 28.075 702.143 28.105 701.303 28.105H700.493V33.055C700.493 33.535 700.508 33.94 700.538 34.27C700.598 34.57 700.673 34.81 700.763 34.99C700.853 35.17 700.973 35.29 701.123 35.35C701.303 35.41 701.513 35.44 701.753 35.44C702.113 35.44 702.413 35.32 702.653 35.08C702.893 34.81 703.073 34.525 703.193 34.225C703.343 33.895 703.523 33.61 703.733 33.37C703.973 33.1 704.243 32.965 704.543 32.965C705.233 32.965 705.758 33.13 706.118 33.46C706.508 33.79 706.703 34.195 706.703 34.675C706.703 35.485 706.538 36.355 706.208 37.285C705.908 38.215 705.458 39.115 704.858 39.985C704.258 40.855 703.418 41.575 702.338 42.145C701.288 42.715 700.103 43 698.783 43C695.813 43 693.713 42.25 692.483 40.75C691.253 39.25 690.638 36.79 690.638 33.37ZM721.507 21.22C724.297 21.22 726.622 21.79 728.482 22.93C730.342 24.07 731.272 25.315 731.272 26.665C731.272 27.055 731.107 27.415 730.777 27.745C730.447 28.075 730.027 28.24 729.517 28.24C729.067 28.24 728.572 28.09 728.032 27.79C727.492 27.46 726.982 27.115 726.502 26.755C726.022 26.395 725.392 26.065 724.612 25.765C723.832 25.465 723.007 25.315 722.137 25.315C720.967 25.315 720.382 25.675 720.382 26.395C720.382 26.905 720.682 27.31 721.282 27.61C721.882 27.91 722.752 28.225 723.892 28.555C725.062 28.885 725.947 29.2 726.547 29.5C728.797 30.37 730.342 31.315 731.182 32.335C732.022 33.325 732.442 34.645 732.442 36.295C732.442 37.105 732.217 37.915 731.767 38.725C731.317 39.505 730.642 40.255 729.742 40.975C728.842 41.665 727.612 42.235 726.052 42.685C724.522 43.105 722.767 43.315 720.787 43.315C716.917 43.315 714.022 42.43 712.102 40.66C711.172 39.79 710.707 38.89 710.707 37.96C710.707 37.39 710.887 36.94 711.247 36.61C711.637 36.28 712.177 36.115 712.867 36.115C713.557 36.115 714.607 36.46 716.017 37.15C717.427 37.81 718.732 38.14 719.932 38.14C721.582 38.14 722.407 37.735 722.407 36.925C722.407 36.505 721.972 36.175 721.102 35.935C720.232 35.665 719.092 35.35 717.682 34.99C716.272 34.63 715.147 34.18 714.307 33.64C712.987 33.07 712.057 32.365 711.517 31.525C711.007 30.655 710.752 29.605 710.752 28.375C710.752 26.275 711.742 24.565 713.722 23.245C715.732 21.895 718.327 21.22 721.507 21.22Z" fill="#F1F1FE"/>
<circle cx="404" cy="33" r="15" fill="#394B99"/>
<circle cx="355.5" cy="33.5" r="7.5" fill="#394B99"/>
<path d="M764.674 44.0867L796.087 12.6737L804.152 20.7392L772.739 52.1522L764.674 44.0867Z" fill="#394B99"/>
<path d="M796.087 52.1522L764.674 20.7392L772.739 12.6737L804.152 44.0867L796.087 52.1522Z" fill="#394B99"/>
</svg>
